<?xml version="1.0" standalone="no"?>
<!DOCTYPE svg PUBLIC "-//W3C//DTD SVG 20010904//EN"
 "http://www.w3.org/TR/2001/REC-SVG-20010904/DTD/svg10.dtd">
<svg version="1.0" xmlns="http://www.w3.org/2000/svg"
 width="597.000000pt" height="597.000000pt" viewBox="0 0 597.000000 597.000000"
 preserveAspectRatio="xMidYMid meet">
<metadata>
Created by potrace 1.11, written by Peter Selinger 2001-2013
</metadata>
<g transform="translate(0.000000,597.000000) scale(0.100000,-0.100000)"
fill="#000000" stroke="none">
<path d="M2877 5962 c-16 -3 -17 -53 -17 -633 0 -346 3 -629 8 -630 4 0 14 -2
23 -4 8 -1 41 -6 73 -9 31 -4 63 -9 69 -11 7 -2 28 -6 47 -9 80 -12 241 -68
298 -104 18 -12 22 -12 23 -1 0 8 1 323 2 702 l2 687 -30 5 c-33 6 -471 12
-498 7z"/>
<path d="M2137 5953 c-1 -1 -92 -4 -202 -7 -110 -2 -200 -5 -200 -5 0 -1 0
-1336 0 -2968 l0 -2967 70 1 c100 2 349 14 371 18 11 2 26 4 35 4 34 2 42 52
35 238 -4 98 -8 194 -10 213 -2 19 -7 83 -10 142 -6 101 -9 135 -21 263 -3 28
-7 79 -10 115 -3 36 -8 83 -10 105 -2 22 -7 78 -11 125 -3 47 -8 105 -10 130
-20 248 -23 553 -5 618 14 51 31 59 119 57 l62 -1 0 553 c0 434 -3 555 -12
558 -7 2 -29 6 -48 8 -80 10 -149 30 -153 46 -7 28 -1 1253 7 1316 10 82 23
112 60 134 29 18 106 43 134 44 10 0 12 130 10 631 l-3 631 -98 0 c-54 0 -99
-1 -100 -2z"/>
<path d="M828 5915 c-2 -1 -48 -5 -103 -8 -197 -12 -255 -41 -250 -124 2 -36
12 -170 20 -293 15 -205 27 -458 40 -855 26 -764 26 -2143 0 -2595 -2 -30 -6
-127 -9 -215 -4 -88 -9 -200 -11 -250 -13 -263 -15 -300 -30 -690 -3 -60 -7
-259 -10 -440 -6 -328 -6 -331 15 -358 39 -49 80 -62 230 -72 168 -12 270 -12
279 -1 6 7 9 1211 9 2959 l0 2947 -89 -2 c-49 -1 -90 -2 -91 -3z"/>
<path d="M3819 5883 c-1 -23 -1 -5825 0 -5839 2 -20 128 -31 414 -38 123 -3
127 -2 128 18 1 27 1 5677 0 5693 -1 14 -25 25 -171 79 -79 30 -336 104 -362
104 -5 0 -8 -8 -9 -17z"/>
<path d="M4672 4030 c0 -836 1 -1520 4 -1520 17 0 223 194 317 299 l57 64 0
1167 0 1167 -42 49 c-87 99 -250 243 -325 287 -8 5 -11 -366 -11 -1513z"/>
<path d="M5254 4040 c0 -440 1 -800 2 -800 1 0 34 93 52 150 13 40 47 212 56
280 16 115 21 221 21 420 0 236 -6 315 -36 453 -21 100 -80 297 -89 297 -3 0
-6 -360 -6 -800z"/>
<path d="M3380 3230 c-35 -22 -182 -72 -255 -86 -48 -9 -183 -24 -222 -24
l-43 0 0 -564 0 -564 35 -22 c51 -32 78 -72 130 -195 26 -61 53 -124 60 -140
32 -70 295 -707 295 -714 0 -4 6 -15 13 -24 10 -14 12 215 11 1158 0 646 -3
1177 -5 1179 -3 3 -11 1 -19 -4z"/>
<path d="M4672 933 l-1 -930 190 1 189 1 0 547 0 547 -40 80 c-22 44 -77 156
-121 248 -145 301 -198 408 -208 422 -6 9 -9 -327 -9 -916z"/>
<path d="M5254 333 c0 -201 4 -311 11 -315 5 -4 24 -6 40 -3 17 2 53 7 80 10
74 8 105 23 105 50 0 13 -13 61 -29 107 -26 71 -54 139 -179 421 -9 20 -19 37
-22 37 -3 0 -6 -138 -6 -307z"/>
</g>
</svg>
